<svg xmlns="http://www.w3.org/2000/svg" viewBox="0 0 477.35 48.25"><defs><style>.cls-1{fill:none;stroke:#231f20;}</style></defs><g id="Layer_2" data-name="Layer 2"><g id="Layer_1-2" data-name="Layer 1"><path class="cls-1" d="M4.43,4Q8.35,1.1,14.7,1.1T25,4A9.46,9.46,0,0,1,29,12.1v1.7A9.46,9.46,0,0,1,25,22Q21.11,24.8,14.75,24.8T4.43,22A9.46,9.46,0,0,1,.5,13.8V12.1A9.46,9.46,0,0,1,4.43,4ZM4.1,45.9a6.26,6.26,0,0,1-1.85-4.6V40.1A5.16,5.16,0,0,1,4.08,36,7.77,7.77,0,0,1,9.25,34.4H34.5V33.2a1,1,0,0,0-.17-.65.83.83,0,0,0-.63-.2H5.55a2.54,2.54,0,0,1-2-.82,3.1,3.1,0,0,1-.7-2.08,3.22,3.22,0,0,1,.7-2.05,2.44,2.44,0,0,1,2.05-.9H38.7c2.2,0,3.74.38,4.63,1.12s1.32,2.1,1.32,4v8.1H13.9a1.13,1.13,0,0,0-.78.25.85.85,0,0,0-.27.65v.25a.8.8,0,0,0,.27.6,1.13,1.13,0,0,0,.78.25H43.1a2.55,2.55,0,0,1,2.13.93A3.42,3.42,0,0,1,46,44.85a3.11,3.11,0,0,1-.7,2,2.61,2.61,0,0,1-2.15.85H9.25A7,7,0,0,1,4.1,45.9Zm7.4-29.47a4.89,4.89,0,0,0,3.2,1,5.11,5.11,0,0,0,3.25-1,3.31,3.31,0,0,0,1.3-2.73V12.2A3.31,3.31,0,0,0,18,9.48a4.83,4.83,0,0,0-3.13-1,5.14,5.14,0,0,0-3.3,1,3.28,3.28,0,0,0-1.3,2.72v1.5A3.38,3.38,0,0,0,11.5,16.43ZM36.05,2.1a5.5,5.5,0,0,1,7.1,0A4.64,4.64,0,0,1,44.6,5.75V25h-10V5.75A4.64,4.64,0,0,1,36.05,2.1Z"/><path class="cls-1" d="M52.3,44q-1.75-1.7-1.75-5.75V27q0-4,1.75-5.7t5.85-1.65h7v-7.5c0-.77-.35-1.15-1.05-1.15h-9a4,4,0,0,1-3.17-1.22A4.3,4.3,0,0,1,50.8,6.85,4.37,4.37,0,0,1,51.88,3.9a4,4,0,0,1,3.17-1.25h12.2a13.73,13.73,0,0,1,4.7.63,4,4,0,0,1,2.32,2,9.13,9.13,0,0,1,.68,4V27.8H62.35a2.33,2.33,0,0,0-1.55.4,2,2,0,0,0-.45,1.5v5.85a2,2,0,0,0,.45,1.5,2.33,2.33,0,0,0,1.55.4h15.3a4,4,0,0,1,3.2,1.2,4.5,4.5,0,0,1,0,5.8,4.06,4.06,0,0,1-3.18,1.2H58.15Q54.06,45.65,52.3,44ZM86.05,2.1a5.5,5.5,0,0,1,7.1,0A4.64,4.64,0,0,1,94.6,5.75v42h-10V27.4H80.85a4.48,4.48,0,0,1-3.25-1.15,4.1,4.1,0,0,1-1.2-3.1,4.19,4.19,0,0,1,1.2-3.1,4.39,4.39,0,0,1,3.25-1.2H84.6V5.75A4.64,4.64,0,0,1,86.05,2.1Z"/><path class="cls-1" d="M144.93,39.55a4.46,4.46,0,0,1,1.07,3,4.39,4.39,0,0,1-1.07,3,4.1,4.1,0,0,1-3.23,1.22H103.5a4.1,4.1,0,0,1-3.23-1.22,4.39,4.39,0,0,1-1.07-3,4.46,4.46,0,0,1,1.07-3,4.05,4.05,0,0,1,3.23-1.25h38.2A4.05,4.05,0,0,1,144.93,39.55ZM127,11.4a18.38,18.38,0,0,1,8.33,2.2,17.63,17.63,0,0,1,6.57,6.3A22,22,0,0,1,145,30.2H134.85a13.35,13.35,0,0,0-2.1-5.75,10.93,10.93,0,0,0-4.17-3.72,11.6,11.6,0,0,0-5.48-1.23,27.64,27.64,0,0,1-8.45,7.75,19.33,19.33,0,0,1-9.9,2.95,5,5,0,0,1-3.42-1.2A4.08,4.08,0,0,1,100,25.75a4.27,4.27,0,0,1,1-2.77,4.39,4.39,0,0,1,2.7-1.53,17.48,17.48,0,0,0,6.3-2.83,17.48,17.48,0,0,0,4.93-5.32A18.23,18.23,0,0,0,117.3,6,5,5,0,0,1,119,2.62,5.69,5.69,0,0,1,122.6,1.5a5,5,0,0,1,3.65,1.38,5,5,0,0,1,1.4,3.72A23,23,0,0,1,127,11.4Z"/><path class="cls-1" d="M194.93,39.55a4.46,4.46,0,0,1,1.07,3,4.39,4.39,0,0,1-1.07,3,4.1,4.1,0,0,1-3.23,1.22H153.5a4.1,4.1,0,0,1-3.23-1.22,4.39,4.39,0,0,1-1.07-3,4.46,4.46,0,0,1,1.07-3,4.05,4.05,0,0,1,3.23-1.25h38.2A4.05,4.05,0,0,1,194.93,39.55ZM192.6,3.45a4.2,4.2,0,0,1,1,2.75,4,4,0,0,1-1,2.73,3.6,3.6,0,0,1-2.88,1.12H163.1c-1,0-1.5.43-1.5,1.3v2h27.8a3.63,3.63,0,0,1,2.9,1.1,3.93,3.93,0,0,1,.95,2.65,3.81,3.81,0,0,1-1,2.65,3.64,3.64,0,0,1-2.87,1.1H161.6v1.9a1.28,1.28,0,0,0,.38,1.05,1.76,1.76,0,0,0,1.12.3h27.4a3.53,3.53,0,0,1,2.9,1.15,4.14,4.14,0,0,1,.95,2.7,4,4,0,0,1-1,2.72,3.57,3.57,0,0,1-2.88,1.13H159.4q-4.31,0-6.13-1.85c-1.21-1.23-1.82-3.22-1.82-5.95V10.1c0-2.73.61-4.72,1.82-5.95s3.26-1.85,6.13-1.85h30.3A3.53,3.53,0,0,1,192.6,3.45Z"/><path class="cls-1" d="M226.75,2A4.75,4.75,0,0,1,233,2,4.11,4.11,0,0,1,234.1,5V47.75h-8.5v-20h-3.4V34q0,6-2.8,9.25c-1.87,2.2-4.58,3.3-8.15,3.3s-6.29-1.1-8.17-3.3S200.25,38,200.25,34V14.4q0-6,2.8-9.25c1.87-2.2,4.58-3.3,8.15-3.3s6.33,1.09,8.2,3.27,2.8,5.28,2.8,9.28v5h3.4V5A4.11,4.11,0,0,1,226.75,2ZM209.48,37.88a2,2,0,0,0,1.72.92,2,2,0,0,0,1.75-.92,4.58,4.58,0,0,0,.65-2.63V13.1a4.6,4.6,0,0,0-.62-2.6,2,2,0,0,0-1.68-.9,2.1,2.1,0,0,0-1.8.88,4.38,4.38,0,0,0-.65,2.62V35.25A4.67,4.67,0,0,0,209.48,37.88ZM237.8,2A4.36,4.36,0,0,1,241,.8,4.29,4.29,0,0,1,244.18,2a4.22,4.22,0,0,1,1.17,3.12V47.75H236.6V5.1A4.16,4.16,0,0,1,237.8,2Z"/><path class="cls-1" d="M255.2,31.55a24.88,24.88,0,0,0,2.9-8.37A72.06,72.06,0,0,0,259,11.05V7.15a4.49,4.49,0,0,1,1.45-3.57A5.2,5.2,0,0,1,264,2.3a5,5,0,0,1,3.45,1.32,4.55,4.55,0,0,1,1.45,3.53V11a77.12,77.12,0,0,1-.6,10,17.42,17.42,0,0,1,9,7.1q2.89,4.75,2.9,13.1,0,1.8-.15,3.75h-9.6a38.47,38.47,0,0,0,.3-4.55,16.38,16.38,0,0,0-1.07-6.3,9.15,9.15,0,0,0-3.38-4.1q-3.15,9.5-10.4,14.15a6.29,6.29,0,0,1-3.7,1.15,5,5,0,0,1-2-.4,3.71,3.71,0,0,1-1.48-1.1,4,4,0,0,1-1-2.7,4.21,4.21,0,0,1,.43-1.85,3.74,3.74,0,0,1,1.27-1.5A20,20,0,0,0,255.2,31.55ZM286.05,2.1a5.5,5.5,0,0,1,7.1,0,4.64,4.64,0,0,1,1.45,3.65v42h-10V23.65h-5.75a4.48,4.48,0,0,1-3.25-1.15,4.1,4.1,0,0,1-1.2-3.1,4.19,4.19,0,0,1,1.2-3.1,4.39,4.39,0,0,1,3.25-1.2h5.75V5.75A4.64,4.64,0,0,1,286.05,2.1Z"/><path class="cls-1" d="M359,24.7A4.08,4.08,0,0,1,360,27.55,4,4,0,0,1,359,30.38a4.07,4.07,0,0,1-3.1,1.12h-38.5a4.07,4.07,0,0,1-3.1-1.12,4,4,0,0,1-1.05-2.83,4.08,4.08,0,0,1,1.05-2.85,4,4,0,0,1,3.1-1.15h38.5A4,4,0,0,1,359,24.7ZM320.6,10.9A11.2,11.2,0,0,0,322,5.1V4.75a3.82,3.82,0,0,1,1.4-3.13A5.31,5.31,0,0,1,326.8.5a5.18,5.18,0,0,1,3.43,1.12,4,4,0,0,1,1.32,3.23V5.3c0,.5,0,1.25-.1,2.25a11.53,11.53,0,0,1,4.43,1.35A8.51,8.51,0,0,1,339,11.85a11.8,11.8,0,0,0,1.9-6.8V4.7a3.76,3.76,0,0,1,1.37-3.1A5.28,5.28,0,0,1,345.65.5a5.14,5.14,0,0,1,3.42,1.12,4,4,0,0,1,1.33,3.23v.3a17.28,17.28,0,0,1-.2,2.75,10.61,10.61,0,0,1,6.8,4.28q2.4,3.38,2.15,9.07h-9c.07-.67.1-1.17.1-1.5a6.67,6.67,0,0,0-.68-3.13,3.88,3.88,0,0,0-2-1.82A16.25,16.25,0,0,1,342.55,20a11.42,11.42,0,0,1-6.2,1.9,5.06,5.06,0,0,1-3.08-.87A3.34,3.34,0,0,1,332,18.5L331.9,18a2.64,2.64,0,0,1,.1-.65,4.06,4.06,0,0,0-.95-1.87,3.66,3.66,0,0,0-1.75-1.08,15.2,15.2,0,0,1-4.87,5.3,11.15,11.15,0,0,1-6.18,2,4.47,4.47,0,0,1-3.15-1.07A3.75,3.75,0,0,1,314,17.65a3.45,3.45,0,0,1,.75-2.17,4.29,4.29,0,0,1,2.15-1.43A6.84,6.84,0,0,0,320.6,10.9Zm-2.12,36.18a4,4,0,0,1-2.16-2.18,11.41,11.41,0,0,1-.62-4.2V37.55a4,4,0,0,1,1.45-3.45A6.07,6.07,0,0,1,320.9,33a5.7,5.7,0,0,1,3.65,1.12,4.17,4.17,0,0,1,1.4,3.43V39c0,.5.08.82.25.95a2,2,0,0,0,1.1.2h26.95a4.22,4.22,0,0,1,3.18,1.08,3.78,3.78,0,0,1,1,2.72,3.82,3.82,0,0,1-1.05,2.75,4.17,4.17,0,0,1-3.15,1.1h-31.4A11.14,11.14,0,0,1,318.48,47.08Z"/><path class="cls-1" d="M423,18.05a3.53,3.53,0,0,1,1,2.6,3.51,3.51,0,0,1-1,2.63,4,4,0,0,1-2.9,1h-39a4,4,0,0,1-2.9-1,3.51,3.51,0,0,1-1-2.63,3.53,3.53,0,0,1,1-2.6,3.87,3.87,0,0,1,2.92-1H410a13,13,0,0,0,1.3-5.75V10.25a1.07,1.07,0,0,0-.28-.87,1.54,1.54,0,0,0-1-.23H383.9a5,5,0,0,1-3.47-1A3.62,3.62,0,0,1,379.3,5.3a3.6,3.6,0,0,1,1.13-2.75,4.93,4.93,0,0,1,3.47-1h31.55a6,6,0,0,1,4.32,1.33,5.25,5.25,0,0,1,1.38,4V9.3a16.9,16.9,0,0,1-1.55,7.75h.5A3.87,3.87,0,0,1,423,18.05Zm-42.79,27.8a7,7,0,0,1-1.63-4.7V40.4A6.17,6.17,0,0,1,380.18,36a6.23,6.23,0,0,1,4.72-1.65h26.75V33.1c0-.53-.37-.8-1.1-.8H382a2.62,2.62,0,0,1-2.07-.87,3,3,0,0,1-.78-2,3.14,3.14,0,0,1,.72-2.07,2.61,2.61,0,0,1,2.13-.88h34.4c2.07,0,3.52.38,4.35,1.13A4.52,4.52,0,0,1,422,31.1v8.75H390.7q-1.35,0-1.35,1c0,.63.45,1,1.35,1h29.85a2.55,2.55,0,0,1,2.13.85,3.63,3.63,0,0,1,0,4.2,2.55,2.55,0,0,1-2.13.85H384.9A5.79,5.79,0,0,1,380.23,45.85Z"/><path class="cls-1" d="M427.57,10a4.54,4.54,0,0,1-1.07-3,4.5,4.5,0,0,1,1.07-3,3.94,3.94,0,0,1,3.18-1.28H453.4A3.76,3.76,0,0,1,456.52,4a4.57,4.57,0,0,1,1,3,4.54,4.54,0,0,1-1,3,3.8,3.8,0,0,1-3.12,1.25h-6.5V18.1a40.35,40.35,0,0,1-.3,5,15.2,15.2,0,0,1,8.08,6.35q2.82,4.5,2.82,13.1c0,1,0,1.82-.05,2.35H447.9a28.9,28.9,0,0,0,.2-3.4q0-6.8-3.65-9.45a26.8,26.8,0,0,1-4,7.15,19.34,19.34,0,0,1-4.95,4.55,9.17,9.17,0,0,1-4.65,1.55,4.78,4.78,0,0,1-3.37-1.12,3.73,3.73,0,0,1-1.23-2.88,4.19,4.19,0,0,1,.52-2.1,5.2,5.2,0,0,1,1.68-1.65,18.11,18.11,0,0,0,6.65-7.9q2.2-4.95,2.2-12.9v-5.5h-6.55A3.93,3.93,0,0,1,427.57,10Zm35-7.88a5.5,5.5,0,0,1,7.1,0,4.64,4.64,0,0,1,1.45,3.65V18.3h1.8a3.5,3.5,0,0,1,3,1.28,5.12,5.12,0,0,1,.92,3.07,5,5,0,0,1-1,3.08,3.48,3.48,0,0,1-3,1.27h-1.8V47.75h-10v-42A4.64,4.64,0,0,1,462.55,2.1Z"/></g></g></svg>