<?xml version="1.0" encoding="utf-8"?>
<!-- Generator: Adobe Illustrator 24.3.0, SVG Export Plug-In . SVG Version: 6.00 Build 0)  -->
<svg version="1.1" id="Layer_1" xmlns="http://www.w3.org/2000/svg" xmlns:xlink="http://www.w3.org/1999/xlink" x="0px" y="0px"
	 viewBox="0 0 50 50" style="enable-background:new 0 0 50 50;" xml:space="preserve">
<style type="text/css">
	.st0{fill:#F15A29;}
</style>
<path class="st0" d="M34.5,1.4H14c-2.2,0-4,1.8-4,4v39.2c0,2.2,1.8,4,4,4h20.5c2.2,0,4-1.8,4-4V5.4C38.4,3.2,36.7,1.4,34.5,1.4z
	 M24.2,46.3c-0.9,0-1.6-0.7-1.6-1.6c0-0.9,0.7-1.6,1.6-1.6c0.9,0,1.6,0.7,1.6,1.6C25.9,45.5,25.1,46.3,24.2,46.3z M35.5,39.6
	c0,0.3-0.2,0.6-0.6,0.6H13.5c-0.3,0-0.6-0.2-0.6-0.6V5c0-0.3,0.2-0.6,0.6-0.6H35c0.3,0,0.6,0.2,0.6,0.6V39.6z"/>
<g>
	<path class="st0" d="M24.6,22.4C24.6,22.4,24.6,22.4,24.6,22.4c-0.1,0-0.1,0.1-0.2,0.1c0,0,0,0,0,0c0,0,0,0,0,0s0,0,0,0
		c0,0,0,0,0,0c-0.1,0-0.1,0-0.2-0.1c0,0,0,0,0,0l-6.4-4.6v6.8H31v-6.8L24.6,22.4z"/>
	<polygon class="st0" points="18.4,17.4 24.4,21.7 30.4,17.4 	"/>
</g>
</svg>
