<svg width="16" height="16" viewBox="0 0 16 16" fill="none" xmlns="http://www.w3.org/2000/svg">
<path d="M13.1663 0.199954H2.83375C2.46148 0.19946 2.09277 0.27242 1.74874 0.414655C1.40471 0.556889 1.09212 0.765603 0.828888 1.02884C0.565651 1.29208 0.356938 1.60466 0.214703 1.94869C0.0724691 2.29272 -0.000491133 2.66143 2.48807e-06 3.0337V12.9662C-0.000491133 13.3385 0.0724691 13.7072 0.214703 14.0512C0.356938 14.3952 0.565651 14.7078 0.828888 14.9711C1.09212 15.2343 1.40471 15.443 1.74874 15.5853C2.09277 15.7275 2.46148 15.8004 2.83375 15.8H13.1663C13.5385 15.8004 13.9072 15.7275 14.2513 15.5853C14.5953 15.443 14.9079 15.2343 15.1711 14.9711C15.4344 14.7078 15.6431 14.3952 15.7853 14.0512C15.9275 13.7072 16.0005 13.3385 16 12.9662V3.0337C16.0005 2.66143 15.9275 2.29272 15.7853 1.94869C15.6431 1.60466 15.4344 1.29208 15.1711 1.02884C14.9079 0.765603 14.5953 0.556889 14.2513 0.414655C13.9072 0.27242 13.5385 0.19946 13.1663 0.199954ZM9.78 11.2H8.38625C8.36276 11.2017 8.33938 11.1954 8.32003 11.182C8.30068 11.1685 8.28654 11.1488 8.28 11.1262L7.73375 9.5337H5.25L4.75 11.1C4.74454 11.1283 4.72871 11.1536 4.7056 11.171C4.68249 11.1883 4.65376 11.1964 4.625 11.1937H3.375C3.3025 11.1937 3.2825 11.1537 3.3025 11.0687L5.44 4.8937C5.46 4.8262 5.48 4.7537 5.50625 4.6737C5.53358 4.53075 5.54698 4.38549 5.54625 4.23995C5.54436 4.22316 5.54882 4.20627 5.55878 4.19262C5.56873 4.17896 5.58344 4.16954 5.6 4.1662H7.32625C7.38 4.1662 7.40625 4.1862 7.41375 4.21995L9.84625 11.0862C9.86625 11.16 9.84625 11.1937 9.78 11.1937V11.2ZM12.08 11.125C12.08 11.1987 12.0538 11.2312 11.9938 11.2312H10.6863C10.6723 11.2323 10.6583 11.2302 10.6452 11.2251C10.6322 11.2201 10.6204 11.2122 10.6109 11.202C10.6013 11.1918 10.5941 11.1796 10.5898 11.1663C10.5856 11.1529 10.5843 11.1388 10.5863 11.125V5.9862C10.5863 5.91995 10.6138 5.8937 10.6738 5.8937H12C12.06 5.8937 12.0863 5.9262 12.0863 5.9862L12.08 11.125ZM11.94 5.09995C11.8614 5.1798 11.7667 5.24196 11.6621 5.28227C11.5576 5.32258 11.4456 5.34011 11.3338 5.3337C11.2242 5.33612 11.1153 5.31669 11.0134 5.27656C10.9114 5.23642 10.8185 5.17639 10.74 5.09995C10.5866 4.93323 10.5052 4.71262 10.5138 4.4862C10.5091 4.37636 10.5277 4.26678 10.5684 4.16466C10.6092 4.06253 10.671 3.97019 10.75 3.8937C10.9097 3.74194 11.1222 3.65813 11.3425 3.65995C11.4545 3.65416 11.5664 3.67198 11.6711 3.71225C11.7758 3.75252 11.8708 3.81434 11.95 3.8937C12.0973 4.05524 12.1762 4.26766 12.17 4.4862C12.1745 4.59867 12.1564 4.71089 12.1169 4.81629C12.0774 4.92168 12.0173 5.01813 11.94 5.09995ZM7.33375 8.17995H5.64C5.74 7.89995 5.84 7.5862 5.93375 7.2462C6.0275 6.9062 6.14 6.57995 6.24 6.25995C6.33106 5.97763 6.40659 5.69054 6.46625 5.39995H6.48C6.52625 5.55995 6.57375 5.7337 6.62625 5.91995C6.67875 6.1062 6.74 6.3062 6.80625 6.5137C6.8725 6.7212 6.93125 6.91995 7 7.1262C7.06875 7.33245 7.125 7.51995 7.18 7.69995C7.235 7.87995 7.29375 8.03995 7.33375 8.17995Z" fill="white"/>
</svg>
