<svg width="16" height="16" viewBox="0 0 16 16" fill="none" xmlns="http://www.w3.org/2000/svg">
<path d="M2.83325 0.199951C1.26663 0.199951 0 1.4667 0 3.03345V12.9665C0 14.5332 1.26663 15.8 2.83325 15.8H13.1667C14.7334 15.8 16 14.5332 16 12.9665V3.03345C16 1.4667 14.7334 0.199951 13.1667 0.199951H2.83325ZM5.73338 4.1667C6.28 4.1667 6.73338 4.2332 7.10663 4.3732C7.44132 4.48693 7.74649 4.67374 8 4.92008C8.21478 5.1356 8.38077 5.39473 8.48675 5.67995C8.58675 5.95995 8.63988 6.24658 8.63988 6.54658C8.63988 7.11991 8.50654 7.59324 8.23987 7.96658C7.97337 8.33983 7.60012 8.61995 7.16675 8.77995C6.71337 8.9467 6.21337 9.00658 5.66675 9.00658C5.50675 9.00658 5.39988 9.00658 5.33325 8.99995C5.26663 8.99333 5.17325 8.99333 5.04663 8.99333V11.1333C5.05325 11.18 5.02 11.2201 4.97337 11.2267H3.68C3.62675 11.2267 3.60025 11.1998 3.60025 11.1398V4.27995C3.60025 4.23333 3.62025 4.20645 3.66687 4.20645C3.78025 4.20645 3.88687 4.20645 4.04012 4.19995C4.20012 4.1932 4.36675 4.19345 4.54675 4.1867C4.72675 4.18008 4.92012 4.17995 5.12675 4.17333C5.3335 4.16658 5.53338 4.1667 5.73338 4.1667ZM5.88212 5.4797C5.84809 5.47905 5.81404 5.47914 5.78 5.47995C5.60675 5.47995 5.45337 5.48008 5.32662 5.48683C5.19337 5.48008 5.10013 5.4867 5.0535 5.49333V7.73333C5.14675 7.74008 5.23325 7.74658 5.31325 7.74658H5.66675C5.92675 7.74658 6.18675 7.70658 6.43337 7.62658C6.64675 7.56658 6.83338 7.43983 6.98 7.2732C7.12 7.10645 7.18675 6.87995 7.18675 6.58658C7.19288 6.3783 7.13974 6.17257 7.0335 5.99333C6.92013 5.82008 6.76 5.68658 6.56663 5.61333C6.35075 5.52583 6.11962 5.48433 5.88212 5.4797ZM11.4734 5.82008C11.7468 5.82008 12.0268 5.83983 12.3 5.87983C12.5 5.90645 12.6933 5.96008 12.8733 6.03345C12.9 6.04008 12.9266 6.06658 12.9399 6.0932C12.9466 6.11983 12.9534 6.14658 12.9534 6.1732V7.25995C12.9534 7.27289 12.9505 7.28565 12.9447 7.29723C12.9389 7.3088 12.9305 7.31885 12.9201 7.32658C12.8601 7.33995 12.8268 7.33995 12.8001 7.32658C12.6001 7.21995 12.3866 7.1467 12.1599 7.10008C11.9132 7.0467 11.6666 7.0132 11.4134 7.0132C11.28 7.00645 11.1399 7.0267 11.0133 7.05995C10.9265 7.07995 10.8533 7.1267 10.8066 7.19333C10.7734 7.2467 10.7534 7.31333 10.7534 7.37333C10.7534 7.43333 10.7801 7.49333 10.8201 7.54658C10.8801 7.61995 10.96 7.68008 11.0466 7.72683C11.2012 7.80673 11.3592 7.88 11.52 7.94645C11.88 8.06645 12.2266 8.23333 12.5466 8.43333C12.7666 8.57333 12.9466 8.76008 13.0732 8.9867C13.1805 9.19933 13.2332 9.43527 13.2268 9.67333C13.2322 9.98845 13.1414 10.2977 12.9665 10.56C12.7806 10.826 12.5212 11.0322 12.22 11.1532C11.8933 11.2932 11.4933 11.3666 11.0133 11.3666C10.7065 11.3666 10.4067 11.34 10.1067 11.28C9.87162 11.2393 9.64294 11.1676 9.42675 11.0666C9.38013 11.04 9.34662 10.9932 9.35325 10.9398V9.77995C9.35325 9.75995 9.35988 9.7332 9.37988 9.71995C9.39988 9.70658 9.41987 9.71345 9.43987 9.7267C9.69667 9.87819 9.97565 9.98845 10.2666 10.0535C10.52 10.1201 10.7868 10.1533 11.0535 10.1533C11.3068 10.1533 11.4867 10.12 11.6067 10.06C11.7134 10.0133 11.7866 9.89995 11.7866 9.77995C11.7866 9.6867 11.7334 9.59983 11.6266 9.51308C11.52 9.42645 11.3 9.32658 10.9734 9.19995C10.6382 9.08191 10.3199 8.92055 10.0266 8.71995C9.81772 8.57109 9.64465 8.37752 9.52 8.15333C9.41361 7.94277 9.36096 7.70916 9.36675 7.47333C9.36675 7.1867 9.44663 6.91333 9.59325 6.6667C9.75988 6.40008 10.0067 6.1867 10.2935 6.05345C10.6067 5.89345 10.9999 5.82008 11.4734 5.82008Z" fill="white"/>
</svg>
